<?xml version="1.0" encoding="iso-8859-1"?>
<!-- Uploaded to: SVG Repo, www.svgrepo.com, Generator: SVG Repo Mixer Tools -->
<svg version="1.1" id="Layer_1" xmlns="http://www.w3.org/2000/svg" xmlns:xlink="http://www.w3.org/1999/xlink" 
	 viewBox="0 0 392.727 392.727" xml:space="preserve">
<path style="fill:#56ACE0;" d="M155.281,88.663c0-36.784-29.931-66.78-66.78-66.78s-66.715,29.996-66.715,66.78v133.042h133.56
	V88.663H155.281z"/>
<path style="fill:#FFFFFF;" d="M303.968,21.883H146.554c18.683,16.226,30.513,40.081,30.513,66.78v133.042h193.616V88.663
	C370.747,51.879,340.752,21.883,303.968,21.883z"/>
<g>
	<rect x="169.374" y="243.491" style="fill:#FFC10D;" width="53.786" height="127.289"/>
	<path style="fill:#FFC10D;" d="M198.917,199.919V88.663c0-15.968-3.426-31.224-9.568-44.865h114.683
		c24.824,0,44.994,20.17,44.994,44.865v111.257H198.917z"/>
</g>
<path style="fill:#FFFFFF;" d="M110.416,149.366c0-4.59-3.685-8.275-8.275-8.275c-2.78,0-5.43,1.422-6.982,3.814l0,0
	c-4.331,6.594-13.899,6.594-18.23,0l0,0c-1.552-2.392-4.202-3.814-6.982-3.814c-4.59,0-8.275,3.685-8.275,8.275
	c0,5.43,10.731,19.135,24.372,31.677C99.426,168.436,110.416,154.473,110.416,149.366z"/>
<g>
	<path style="fill:#194F82;" d="M303.968,0.097H88.566C39.758,0.097,0,39.79,0,88.663V232.63c0,6.012,4.848,10.925,10.925,10.925
		h136.727v138.149c0,6.012,4.848,10.925,10.925,10.925h75.572c6.012,0,10.925-4.848,10.925-10.925V243.491h136.727
		c6.012,0,10.925-4.848,10.925-10.925V88.663C392.533,39.79,352.84,0.097,303.968,0.097z M155.281,221.705H21.786V88.663
		c0-36.784,29.931-66.78,66.78-66.78s66.78,29.996,66.78,66.78v133.042H155.281z M223.16,370.844h-53.786V243.491h53.786
		L223.16,370.844L223.16,370.844z M370.747,221.705H177.131V88.663c0-26.634-11.895-50.489-30.513-66.78h157.414
		c36.784,0,66.78,29.931,66.78,66.78v133.042H370.747z"/>
	<path style="fill:#194F82;" d="M262.659,55.046H234.15c-6.012,0-10.925,4.848-10.925,10.925s4.848,10.925,10.925,10.925h17.648
		v72.081c0,6.012,4.848,10.925,10.925,10.925c6.077,0,10.925-4.848,10.925-10.925V65.907
		C273.519,59.895,268.606,55.046,262.659,55.046z"/>
	<path style="fill:#194F82;" d="M43.507,81.358c-6.012,0-10.925,4.848-10.925,10.925c0,6.077,4.848,10.925,10.925,10.925h85.139
		c6.012,0,10.925-4.848,10.925-10.925c0-6.077-4.848-10.925-10.925-10.925H43.507z"/>
	<path style="fill:#194F82;" d="M102.141,119.305c-5.818,0-11.378,1.616-16.097,4.655c-4.719-3.038-10.279-4.655-16.097-4.655
		c-16.614,0-30.125,13.511-30.125,30.125c0,20.558,29.996,46.998,39.176,54.562c4.073,3.297,9.956,3.297,13.964-0.065
		c9.18-7.758,39.176-34.457,39.176-54.562C132.202,132.752,118.756,119.305,102.141,119.305z M85.98,181.042
		c-13.511-12.541-24.242-26.246-24.242-31.677c0-4.59,3.685-8.275,8.275-8.275c2.78,0,5.43,1.422,6.982,3.814
		c4.331,6.594,13.899,6.594,18.23,0c1.552-2.392,4.202-3.814,6.982-3.814c4.59,0,8.275,3.685,8.275,8.275
		C110.416,154.473,99.426,168.436,85.98,181.042z"/>
</g>
</svg>