<?xml version="1.0" encoding="iso-8859-1"?>
<!-- Uploaded to: SVG Repo, www.svgrepo.com, Generator: SVG Repo Mixer Tools -->
<svg version="1.1" id="Layer_1" xmlns="http://www.w3.org/2000/svg" xmlns:xlink="http://www.w3.org/1999/xlink" 
	 viewBox="0 0 511.998 511.998" xml:space="preserve">
<g>
	<path style="fill:#2D527C;" d="M255.998,271.976c-3.216,0-6.434-0.975-9.186-2.922l-103.947-73.587
		c-20.92-14.775-33.418-39.264-33.418-65.498V15.898c0-8.78,7.119-15.898,15.898-15.898s15.898,7.117,15.898,15.898v114.07
		c0,15.921,7.469,30.703,19.979,39.539l94.775,67.094l94.759-67.083c12.526-8.845,19.994-23.627,19.994-39.548V85.888
		c0-8.78,7.119-15.898,15.898-15.898c8.779,0,15.898,7.117,15.898,15.898v44.081c0,26.234-12.497,50.723-33.433,65.509
		l-103.931,73.576C262.432,271.002,259.216,271.976,255.998,271.976z"/>
	<path style="fill:#2D527C;" d="M444.52,418.961c-8.779,0-15.898-7.117-15.898-15.898V108.937c0-8.78,7.119-15.898,15.898-15.898
		c8.779,0,15.898,7.117,15.898,15.898v294.126C460.418,411.843,453.3,418.961,444.52,418.961z"/>
	<path style="fill:#2D527C;" d="M67.477,418.961c-8.779,0-15.898-7.117-15.898-15.898V108.937c0-8.78,7.119-15.898,15.898-15.898
		s15.898,7.117,15.898,15.898v294.126C83.374,411.843,76.257,418.961,67.477,418.961z"/>
</g>
<g>
	<rect x="125.352" y="403.179" style="fill:#CEE8FA;" width="261.309" height="92.89"/>
	<path style="fill:#CEE8FA;" d="M386.65,15.976v92.847H125.347V15.936h0.146l-0.146-0.038v114.072
		c0,21.05,10.004,40.728,26.705,52.524l103.947,73.587l103.947-73.587c16.7-11.794,26.705-31.472,26.705-52.524V85.888
		L386.65,15.976L386.65,15.976z"/>
</g>
<path style="fill:#2D527C;" d="M448.625,480.125h-46.076v-76.949v-21.145c0-26.234-12.497-50.723-33.418-65.498l-85.507-60.533
	l85.493-60.522c20.934-14.785,33.431-39.275,33.431-65.509V31.873h46.076c8.779,0,15.898-7.117,15.898-15.898
	s-7.119-15.898-15.898-15.898H126.886c-0.943-0.091-1.885-0.078-2.822,0H63.372c-8.779,0-15.898,7.117-15.898,15.898
	s7.119,15.898,15.898,15.898h46.076v98.095c0,26.234,12.497,50.723,33.418,65.498l103.947,73.587
	c0.529,0.375,1.079,0.703,1.641,1.005l102.322,72.434c12.51,8.836,19.979,23.616,19.979,39.539v5.248H141.245v-5.248
	c0-15.921,7.469-30.703,19.979-39.539c7.173-5.065,8.88-14.985,3.814-22.156c-5.065-7.171-14.985-8.877-22.156-3.814
	c-20.936,14.785-33.433,39.275-33.433,65.509v21.145v76.949H63.372c-8.779,0-15.898,7.117-15.898,15.898
	c0,8.78,7.119,15.898,15.898,15.898h60.422c0.512,0.049,1.029,0.078,1.553,0.078h261.304c0.525,0,1.041-0.029,1.553-0.078h60.422
	c8.779,0,15.898-7.117,15.898-15.898C464.524,487.243,457.405,480.125,448.625,480.125z M370.754,31.873v61.052H141.245V31.873
	H370.754z M141.245,129.968v-5.248h229.509v5.248c0,15.921-7.469,30.703-19.994,39.548L256,236.599l-94.775-67.094
	C148.713,160.671,141.245,145.891,141.245,129.968z M141.245,419.074h229.509v61.052H141.245V419.074z"/>
</svg>